<?xml version="1.0" encoding="utf-8"?>

<!DOCTYPE svg PUBLIC "-//W3C//DTD SVG 1.1//EN" "http://www.w3.org/Graphics/SVG/1.1/DTD/svg11.dtd">
<!-- Uploaded to: SVG Repo, www.svgrepo.com, Generator: SVG Repo Mixer Tools -->
<svg fill="#000000" version="1.1" id="Layer_1" xmlns="http://www.w3.org/2000/svg" xmlns:xlink="http://www.w3.org/1999/xlink" 
	 width="800px" height="800px" viewBox="0 0 100 100" enable-background="new 0 0 100 100" xml:space="preserve">
<g>
	<path d="M7.569,80.581c0.115,0.02,0.23,0.029,0.344,0.029c0.831,0,1.594-0.521,1.883-1.326c0.313-0.871,7.783-21.322,39.755-21.322
		c1.686,0,3.949,0.059,4.949,0.175v8.066c0,2.469,1.753,4.917,4.079,6.239c0.806,0.458,1.792,0.689,2.684,0.689
		c2.219,0,4.094-1.414,5.551-2.551c0.435-0.34,0.877-0.66,1.224-0.883c1.374-0.883,2.738-1.836,4.043-2.759
		c0.711-0.502,1.429-1.004,2.141-1.493c3.639-2.497,7.289-5.12,10.814-7.656l1.271-0.913c0.477-0.342,0.962-0.678,1.446-1.014
		c0.39-0.271,0.778-0.541,1.103-0.771c2.688-1.756,6.032-3.941,6.032-8.069c0-3.968-2.773-5.857-5.956-8.026l-2.104-1.49
		c-1.848-1.312-3.697-2.624-5.562-3.909c-2.031-1.4-4.07-2.89-6.043-4.331c-2.283-1.669-4.646-3.395-7.037-5.013
		c-0.337-0.229-0.683-0.491-1.04-0.762c-1.627-1.23-3.952-2.796-6.526-2.535c-3.458,0.341-6.118,3.902-6.118,6.885v8.994
		c0-0.009-0.561-0.016-1.074-0.016C30.335,36.82,5.787,47.8,5.787,78.613C5.787,79.585,6.612,80.414,7.569,80.581z M53.676,40.82
		c1.405,0,2.233-0.135,2.242-0.135c0.045,0.003,0.092-0.186,0.137-0.186H57c1.104,0,1.5-0.515,1.5-1.619V27.842
		c0-1.182,1.314-2.786,2.51-2.904c1.042-0.103,2.396,0.836,3.596,1.745c0.416,0.314,0.883,0.618,1.274,0.884
		c2.332,1.578,4.695,3.282,6.951,4.93c1.994,1.457,4.072,2.964,6.148,4.395c1.851,1.275,3.692,2.577,5.525,3.878l2.143,1.516
		c3.385,2.306,4.238,3.104,4.238,4.739c0,1.68-1.301,2.813-4.28,4.763c-0.375,0.265-0.754,0.527-1.133,0.791
		c-0.502,0.348-1.002,0.695-1.497,1.051l-1.272,0.915c-3.508,2.523-7.136,5.133-10.739,7.605c-0.728,0.5-1.452,1.013-2.178,1.525
		c-1.269,0.896-2.581,1.824-3.879,2.658c-0.501,0.322-1.005,0.715-1.492,1.096c-0.974,0.76-2.185,1.704-3.027,1.704
		c-0.196,0-0.632-0.053-0.833-0.168c-1.062-0.604-2.055-1.739-2.055-2.761v-9.92c0-1.037-0.543-1.903-1.577-1.992
		c-2.514-0.219-4.869-0.329-7.247-0.329c-22.062,0-33.52,9.183-39.099,16.192C15.517,43.089,44.305,40.82,53.676,40.82z"/>
</g>
</svg>